<svg width="261" height="77" viewBox="0 0 261 77" fill="none" xmlns="http://www.w3.org/2000/svg">
<path d="M25.3765 24.4568L20.5594 17.2087C19.8945 17.6417 19.2542 18.1071 18.6342 18.6009L24.1039 25.3755C24.5158 25.0517 24.936 24.7442 25.3765 24.4568Z" fill="#72767C"/>
<path d="M17.7491 38.4998C17.7491 38.2449 17.7572 37.9939 17.7695 37.743L9.02855 37.3505C9.01224 37.7349 9 38.1154 9 38.4998C9 38.9045 9.01224 39.3092 9.03263 39.7099L17.7736 39.2971C17.7572 39.034 17.7491 38.771 17.7491 38.4998Z" fill="#72767C"/>
<path d="M21.4567 28.0101L14.6206 22.5953C14.1271 23.2104 13.658 23.8458 13.2216 24.5055L20.5349 29.2688C20.8204 28.8357 21.1304 28.4148 21.4567 28.0101Z" fill="#72767C"/>
<path d="M18.83 32.5874L10.6397 29.5319C10.3623 30.2644 10.1176 31.0172 9.90957 31.778L18.3487 34.0645C18.4873 33.5668 18.6464 33.069 18.83 32.5874Z" fill="#72767C"/>
<path d="M45.2975 25.3755L50.7672 18.6009C50.1472 18.1071 49.5068 17.6417 48.842 17.2087L44.0289 24.4568C44.4654 24.7442 44.8896 25.0517 45.2975 25.3755Z" fill="#72767C"/>
<path d="M30.2099 22.2837L27.8931 13.9105C27.1222 14.121 26.3676 14.3638 25.6294 14.639L28.7211 22.7613C29.2024 22.5832 29.7041 22.4213 30.2099 22.2837Z" fill="#72767C"/>
<path d="M40.6884 22.7654L43.7801 14.6431C43.0419 14.3679 42.2832 14.1251 41.5164 13.9146L39.1996 22.2878C39.7013 22.4214 40.1989 22.5833 40.6884 22.7654Z" fill="#72767C"/>
<path d="M34.7007 21.6808C34.9658 21.6808 35.2268 21.6889 35.4879 21.701L35.8917 13.0283C35.496 13.0121 35.1004 13 34.7007 13C34.3009 13 33.9053 13.0121 33.5096 13.0283L33.9135 21.701C34.1786 21.6889 34.4396 21.6808 34.7007 21.6808Z" fill="#72767C"/>
<path d="M34.7007 55.3192C34.4396 55.3192 34.1786 55.3111 33.9175 55.299L33.5137 63.9717C33.9094 63.9879 34.305 64 34.7007 64C35.1004 64 35.496 63.9879 35.8876 63.9717L35.4838 55.299C35.2268 55.3111 34.9658 55.3192 34.7007 55.3192Z" fill="#72767C"/>
<path d="M39.1833 54.7242L41.496 63.0974C42.2628 62.8869 43.0174 62.6481 43.7557 62.3729L40.6721 54.2466C40.1867 54.4247 39.6891 54.5866 39.1833 54.7242Z" fill="#72767C"/>
<path d="M44.0085 52.5551L48.8134 59.8113C49.4783 59.3783 50.1186 58.917 50.7345 58.4232L45.2771 51.6405C44.8692 51.9643 44.4491 52.2718 44.0085 52.5551Z" fill="#72767C"/>
<path d="M20.5512 47.7594L13.246 52.5389C13.6825 53.1945 14.1515 53.8299 14.6492 54.445L21.4771 49.018C21.1508 48.6133 20.8408 48.1924 20.5512 47.7594Z" fill="#72767C"/>
<path d="M28.7293 54.2427L25.6457 62.3691C26.3839 62.6443 27.1385 62.8871 27.9053 63.0935L30.218 54.7203C29.7123 54.5867 29.2147 54.4248 28.7293 54.2427Z" fill="#72767C"/>
<path d="M18.3609 42.9719L9.92589 45.2787C10.138 46.0395 10.3827 46.7922 10.6601 47.5207L18.8463 44.449C18.6627 43.9675 18.4996 43.4737 18.3609 42.9719Z" fill="#72767C"/>
<path d="M24.1243 51.6405L18.6668 58.4232C19.2868 58.9129 19.9272 59.3783 20.5879 59.8113L25.3928 52.5551C24.9564 52.2718 24.5322 51.9643 24.1243 51.6405Z" fill="#72767C"/>
<path d="M35.1697 28.7464C36.993 28.7464 39.5259 29.1511 42.4341 31.2596L40.309 34.5134C38.3716 32.9229 36.0997 32.8137 35.3941 32.8137C31.7435 32.8137 29.1739 35.1407 29.1739 38.5037C29.1739 41.8303 31.7435 44.1938 35.3941 44.1938C36.1038 44.1938 38.3757 44.0481 40.309 42.494L42.4341 45.7073C39.53 47.8522 36.997 48.2569 35.1697 48.2569C28.6151 48.2569 24.5525 44.044 24.5525 38.613C24.5566 33.0686 28.5049 28.7464 35.1697 28.7464Z" fill="#72767C"/>
<path d="M53.8793 28.7464C59.3939 28.7464 64.1212 33.1455 64.1212 38.5037C64.1212 43.8983 59.3898 48.261 53.8793 48.261C48.4422 48.261 43.6741 43.9388 43.6741 38.5037C43.6741 33.105 48.4422 28.7464 53.8793 28.7464ZM53.8793 44.3759C57.0812 44.3759 59.504 41.7898 59.504 38.4997C59.504 35.2459 57.0812 32.6234 53.8793 32.6234C50.7141 32.6234 48.2913 35.2095 48.2913 38.4997C48.2954 41.7898 50.7141 44.3759 53.8793 44.3759Z" fill="#72767C"/>
<path d="M76.5086 28.7464C82.0232 28.7464 86.7505 33.1455 86.7505 38.5037C86.7505 43.8983 82.0191 48.261 76.5086 48.261C71.0715 48.261 66.3034 43.9388 66.3034 38.5037C66.3034 33.105 71.0715 28.7464 76.5086 28.7464ZM76.5086 44.3759C79.7105 44.3759 82.1333 41.7898 82.1333 38.4997C82.1333 35.2459 79.7105 32.6234 76.5086 32.6234C73.3434 32.6234 70.9206 35.2095 70.9206 38.4997C70.9206 41.7898 73.3434 44.3759 76.5086 44.3759Z" fill="#72767C"/>
<path d="M90.2543 47.8522V21.13H94.8348V47.8482H90.2543V47.8522Z" fill="#72767C"/>
<path d="M117.713 44.6713C115.18 47.4799 112.088 48.2569 109.184 48.2569C102.405 48.2569 98.3466 43.8942 98.3466 38.5725C98.3466 33.105 102.703 28.7423 108.662 28.7423C113.765 28.7423 118.569 31.9192 118.569 39.1269H102.927C102.927 42.0852 105.35 44.4123 109.408 44.4123C111.754 44.4123 113.508 43.5624 115.107 42.1217L117.713 44.6713ZM103.147 36.0633H113.875C113.165 33.1819 110.595 32.3684 108.662 32.3684C106.647 32.3644 104.114 33.1778 103.147 36.0633Z" fill="#72767C"/>
<path d="M126.429 33.2912C127.062 30.1143 129.558 28.7464 131.569 28.7464C132.201 28.7464 132.576 28.8557 133.135 29.0054V33.4774C132.425 33.2183 131.569 33.1091 130.973 33.1091C129.297 33.1091 126.503 34.0318 126.503 39.2079V47.8563H121.922V29.1511H126.429V33.2912Z" fill="#72767C"/>
<path d="M151.979 29.1511H156.56V32.6234H151.979V47.8481H147.325V32.6234H144.531V29.1511H147.325V27.8925C147.325 22.166 150.715 20.7617 153.88 20.7617C157.938 20.7617 159.692 23.202 159.692 25.8973C159.692 26.0066 159.655 26.561 159.505 26.9334H155.817C155.891 26.7472 155.927 26.4882 155.927 26.3061C155.927 25.1244 155.181 24.5335 154.063 24.5335C152.909 24.5335 151.979 25.4198 151.979 27.1924V29.1511Z" fill="#72767C"/>
<path d="M176.807 47.8522H172.226V44.7118C171.035 47.1521 168.837 48.261 166.153 48.261C161.458 48.261 159.15 44.8979 159.15 39.5033V29.1511H163.73V39.4628C163.73 42.494 164.921 44.2666 167.381 44.2666C169.506 44.2666 172.222 42.5304 172.222 37.2451V29.1511H176.803V47.8522H176.807Z" fill="#72767C"/>
<path d="M187.126 29.1512H192.751V32.6235H187.126V42.4172C187.126 43.5625 187.612 44.4488 188.95 44.4488C190.067 44.4488 190.814 43.6717 190.814 42.5264C190.814 42.1217 190.74 41.3811 190.553 40.9765H194.313C194.648 41.6806 194.721 42.749 194.721 43.0849C194.721 45.8207 192.82 48.257 188.762 48.257C185.633 48.257 182.542 46.9255 182.542 41.7899V32.6235H179.601V29.1512H182.766L183.586 24.1613H187.126V29.1512Z" fill="#72767C"/>
<path d="M214.707 47.8522H210.127V44.7118C208.936 47.1521 206.737 48.261 204.053 48.261C199.359 48.261 197.05 44.8979 197.05 39.5033V29.1511H201.631V39.4628C201.631 42.494 202.822 44.2666 205.281 44.2666C207.406 44.2666 210.123 42.5304 210.123 37.2451V29.1511H214.703V47.8522H214.707Z" fill="#72767C"/>
<path d="M223.93 33.2912C224.562 30.1143 227.058 28.7464 229.069 28.7464C229.701 28.7464 230.076 28.8557 230.635 29.0054V33.4774C229.925 33.2183 229.069 33.1091 228.473 33.1091C226.797 33.1091 224.003 34.0318 224.003 39.2079V47.8563H219.422V29.1511H223.93V33.2912Z" fill="#72767C"/>
<path d="M251.139 44.6713C248.606 47.4799 245.515 48.2569 242.611 48.2569C235.832 48.2569 231.773 43.8942 231.773 38.5725C231.773 33.105 236.129 28.7423 242.093 28.7423C247.195 28.7423 252 31.9192 252 39.1269H236.358C236.358 42.0852 238.781 44.4123 242.839 44.4123C245.184 44.4123 246.934 43.5624 248.537 42.1217L251.139 44.6713ZM236.574 36.0633H247.301C246.591 33.1819 244.022 32.3684 242.088 32.3684C240.078 32.3644 237.545 33.1778 236.574 36.0633Z" fill="#72767C"/>
</svg>
