<svg width="261" height="77" viewBox="0 0 261 77" fill="none" xmlns="http://www.w3.org/2000/svg">
<path fill-rule="evenodd" clip-rule="evenodd" d="M124.967 36.4459C121.422 36.4459 118.537 39.3302 118.537 42.8754C118.537 46.4205 121.422 49.3049 124.967 49.3049C128.512 49.3049 131.396 46.4205 131.396 42.8754C131.396 39.3302 128.512 36.4459 124.967 36.4459ZM124.967 56.0139C117.722 56.0139 111.828 50.12 111.828 42.8754C111.828 35.6308 117.722 29.7369 124.967 29.7369C132.212 29.7369 138.105 35.6308 138.105 42.8754C138.105 50.12 132.212 56.0139 124.967 56.0139Z" fill="#72767C"/>
<path fill-rule="evenodd" clip-rule="evenodd" d="M227.673 36.4459C224.128 36.4459 221.244 39.3302 221.244 42.8754C221.244 46.4205 224.128 49.3049 227.673 49.3049C231.218 49.3049 234.103 46.4205 234.103 42.8754C234.103 39.3302 231.218 36.4459 227.673 36.4459ZM227.673 56.0139C220.429 56.0139 214.535 50.12 214.535 42.8754C214.535 35.6308 220.429 29.7369 227.673 29.7369C234.918 29.7369 240.812 35.6308 240.812 42.8754C240.812 50.12 234.918 56.0139 227.673 56.0139Z" fill="#72767C"/>
<path fill-rule="evenodd" clip-rule="evenodd" d="M104.916 55.8725H100.441C99.8232 55.8725 99.3219 55.3703 99.3219 54.751V42.0894C99.3219 39.3429 97.2573 36.9406 94.5213 36.7573C91.5211 36.5561 89.0162 38.9438 89.0162 41.9072V54.751C89.0162 55.3703 88.5149 55.8725 87.896 55.8725H83.4216C82.8028 55.8725 82.302 55.3703 82.302 54.751V42.1992C82.302 35.7619 87.2895 30.2713 93.7111 30.028C100.463 29.7724 106.036 35.2003 106.036 41.9072V54.751C106.036 55.3703 105.535 55.8725 104.916 55.8725Z" fill="#72767C"/>
<path fill-rule="evenodd" clip-rule="evenodd" d="M138.036 69.9911C138.43 70.0062 138.829 70.0023 139.231 69.9782C145.556 69.5996 150.396 64.1705 150.396 57.8432V20.1205C150.396 19.5018 149.894 19 149.274 19H144.79C144.17 19 143.667 19.5018 143.667 20.1205V57.9406C143.667 60.7003 141.575 63.1071 138.817 63.2712C138.552 63.2863 134.282 63.2594 134.282 63.2594C133.663 63.2594 133.161 63.7606 133.161 64.3794V68.8778C133.161 69.4977 133.664 69.9995 134.284 69.9978L138.036 69.9911Z" fill="#72767C"/>
<path fill-rule="evenodd" clip-rule="evenodd" d="M64.4669 55.8638C58.0455 55.6206 53.0581 50.1305 53.0581 43.6927V31.1398C53.0581 30.521 53.5589 30.0193 54.1765 30.0193H58.6537C59.2714 30.0193 59.7721 30.521 59.7721 31.1398V43.8019C59.7721 46.5489 61.8367 48.9512 64.5721 49.1351C67.5727 49.3363 70.0782 46.948 70.0782 43.9847V31.1398C70.0782 30.521 70.5789 30.0193 71.1966 30.0193H75.6732C76.2914 30.0193 76.7922 30.521 76.7922 31.1398V43.9847C76.7922 50.6921 71.2179 56.12 64.4669 55.8638Z" fill="#72767C"/>
<path fill-rule="evenodd" clip-rule="evenodd" d="M37.2292 32.1322C36.7783 32.7387 35.8681 32.7342 35.4228 32.1232L27.5705 21.2996C27.3596 21.0086 27.022 20.8365 26.6625 20.8365H21.1235C20.2071 20.8365 19.6777 21.8752 20.2161 22.6163L32.1528 39.0561L32.9553 40.1536V43.7557V54.7515C32.9553 55.3703 33.4572 55.8726 34.0769 55.8726H38.5634C39.1825 55.8726 39.685 55.3703 39.685 54.7515V43.7557V40.1536L40.4869 39.0561L52.8313 22.6309C53.3865 21.8921 52.8594 20.8365 51.9346 20.8365H46.3069C45.9548 20.8365 45.6233 21.0019 45.4113 21.2827L37.2292 32.1322Z" fill="#72767C"/>
<path fill-rule="evenodd" clip-rule="evenodd" d="M207.905 55.8725H203.43C202.812 55.8725 202.311 55.3703 202.311 54.751V42.0894C202.311 39.3429 200.246 36.9406 197.51 36.7573C194.51 36.5561 192.005 38.9438 192.005 41.9072V54.751C192.005 55.3703 191.503 55.8725 190.885 55.8725H186.41C185.792 55.8725 185.291 55.3703 185.291 54.751V42.1992C185.291 35.7619 190.278 30.2713 196.7 30.028C203.452 29.7724 209.025 35.2003 209.025 41.9072V54.751C209.025 55.3703 208.524 55.8725 207.905 55.8725Z" fill="#72767C"/>
<path fill-rule="evenodd" clip-rule="evenodd" d="M167.315 55.8638C160.893 55.6206 155.906 50.1305 155.906 43.6927V31.1398C155.906 30.521 156.407 30.0193 157.024 30.0193H161.501C162.119 30.0193 162.62 30.521 162.62 31.1398V43.8019C162.62 46.5489 164.684 48.9512 167.42 49.1351C170.42 49.3363 172.926 46.948 172.926 43.9847V31.1398C172.926 30.521 173.426 30.0193 174.044 30.0193H178.521C179.139 30.0193 179.64 30.521 179.64 31.1398V43.9847C179.64 50.6921 174.066 56.12 167.315 55.8638Z" fill="#72767C"/>
</svg>
