<svg width="261" height="77" viewBox="0 0 261 77" fill="none" xmlns="http://www.w3.org/2000/svg">
<path fill-rule="evenodd" clip-rule="evenodd" d="M71.8262 45.2959C71.8262 43.3458 70.3881 41.9965 67.3698 41.9965H61.3222V48.6461H67.5174C70.0436 48.6461 71.8262 47.7461 71.8262 45.2959ZM70.738 32.0985C70.738 30.1982 69.4476 28.8982 67.5174 28.8982H61.3222V35.1976H67.3698C69.546 35.1976 70.738 33.5982 70.738 32.0985ZM80.8428 46.2452C80.8428 51.9455 75.5936 55.6951 70.2897 55.6951H53V21.8481H68.8516C74.9484 21.8481 79.3555 24.8957 79.3555 31.1475C79.3555 36.4976 74.7023 38.097 74.7023 38.097C74.7023 38.1473 80.8428 39.5475 80.8428 46.2452Z" fill="#72767C"/>
<path fill-rule="evenodd" clip-rule="evenodd" d="M106.723 38.7475C106.723 33.4478 104.295 29.1482 99.4941 29.1482C94.6877 29.1482 92.3092 33.4478 92.3092 38.7475C92.3092 44.0965 94.6877 48.3955 99.4941 48.3955C104.295 48.3955 106.723 44.0965 106.723 38.7475ZM115.045 38.7475C115.045 48.6959 109.347 56.4951 99.4941 56.4951C89.6846 56.4951 83.9377 48.6959 83.9377 38.7475C83.9377 28.8484 89.6846 21 99.4886 21C109.347 21 115.045 28.8484 115.045 38.7475Z" fill="#72767C"/>
<path fill-rule="evenodd" clip-rule="evenodd" d="M144.096 45.4458C144.096 52.8953 137.36 56.4951 131.022 56.4951C123.69 56.4951 119.922 53.6953 116.953 50.1459L122.35 44.8456C124.63 47.746 127.605 49.196 130.924 49.196C133.647 49.196 135.479 47.8462 135.479 45.8458C135.479 43.6965 133.86 43.0268 129.431 42.0961L128.244 41.8466C122.913 40.726 118.533 37.6975 118.533 31.6482C118.533 24.9997 123.936 21 131.071 21C137.113 21 141.029 23.599 143.407 26.2964L138.152 31.4982C136.517 29.7479 134.04 28.3483 131.219 28.3483C129.289 28.3483 127.107 29.2483 127.107 31.4982C127.107 33.5479 129.376 34.2915 132.258 34.8977L133.45 35.1483C138.273 36.1611 144.096 37.6477 144.096 45.4458Z" fill="#72767C"/>
<path fill-rule="evenodd" clip-rule="evenodd" d="M176.269 49.1457C172.803 54.145 169.582 56.4951 162.895 56.4951C153.386 56.4951 147.24 48.5958 147.24 38.5473C147.24 28.9983 152.79 21.0492 162.993 21.0492C168.592 21.0492 172.606 23.2488 176.023 28.3986L169.188 32.9482C167.799 30.5478 166.017 29.1482 163.042 29.1482C159.28 29.1482 155.661 32.516 155.661 38.5473C155.661 45.3057 159.576 48.3955 163.294 48.3955C166.509 48.3955 167.996 46.7956 169.385 44.4959L176.269 49.1457Z" fill="#72767C"/>
<path fill-rule="evenodd" clip-rule="evenodd" d="M208 55.6951H199.082V42.3467H188.824V55.6951H179.96V21.8481H188.824V34.2975H199.082V21.8481H208V55.6951Z" fill="#72767C"/>
</svg>
