<svg width="261" height="77" viewBox="0 0 261 77" fill="none" xmlns="http://www.w3.org/2000/svg">
<path fill-rule="evenodd" clip-rule="evenodd" d="M71.0086 45.6983H63.1268L67.3199 32.0669L71.0086 45.6983ZM59.0525 60.7194L61.7321 51.7619H72.3461L74.8639 60.7194H84.697L74.9162 26.5602C74.3593 24.5564 73.1314 23.6093 71.0086 23.6093H57.0965V26.8362H58.2673C59.7237 26.8362 60.5042 27.3931 60.5042 28.5068C60.5042 29.2302 60.3377 29.8442 59.776 31.5101L50 60.7194H59.0525V60.7194Z" fill="#72767C"/>
<path d="M96.0247 60.7194V26.4459C96.0247 24.6658 94.9634 23.6093 93.231 23.6093H84.6255V26.8362H85.1873C86.639 26.8362 87.2528 27.4502 87.2528 28.8971V60.7194H96.0247Z" fill="#72767C"/>
<path d="M110.927 60.7194V26.4459C110.927 24.6658 109.865 23.6093 108.133 23.6093H99.5278V26.8362H100.089C101.541 26.8362 102.155 27.4502 102.155 28.8971V60.7194H110.927Z" fill="#72767C"/>
<path fill-rule="evenodd" clip-rule="evenodd" d="M126.219 27.0028C126.219 24.4993 124.378 23 121.193 23C118.062 23 116.163 24.4993 116.163 27.0028C116.163 29.5063 118.062 31.0103 121.193 31.0103C124.378 31.0103 126.219 29.5063 126.219 27.0028ZM126.053 60.7194V35.7413C126.053 33.9565 124.991 32.8999 123.259 32.8999H114.768V36.0745H115.268C116.724 36.0745 117.338 36.7408 117.338 38.1877V60.7194H126.053Z" fill="#72767C"/>
<path fill-rule="evenodd" clip-rule="evenodd" d="M145.257 47.3687V52.766C143.801 54.2653 142.016 55.1553 140.507 55.1553C138.941 55.1553 138.385 54.3795 138.385 52.3186C138.385 50.2625 138.832 49.3153 140.398 48.7013C141.569 48.2016 143.077 47.7542 145.257 47.3687M133.468 40.8576C136.371 39.4678 139.555 38.6873 142.073 38.6873C144.42 38.6873 145.257 39.525 145.257 41.9714V42.5806C141.683 43.1374 140.564 43.3611 138.551 43.8085C137.38 44.0846 136.314 44.4177 135.257 44.8651C131.735 46.2549 130.06 48.9822 130.06 53.1516C130.06 58.4394 132.349 61 137.099 61C138.832 61 140.398 60.6668 141.792 60.11C143.02 59.5531 143.749 59.1058 145.538 57.716V58.1063C145.538 59.8292 146.428 60.7192 148.161 60.7192H156.147V57.716H155.757C154.253 57.716 153.691 57.0496 153.691 55.2695V42.0285C153.691 34.9606 151.235 32.5142 144.139 32.5142C141.845 32.5142 139.613 32.7902 137.433 33.29C135.258 33.7897 134.139 34.2371 131.512 35.5174L133.468 40.8576V40.8576Z" fill="#72767C"/>
<path fill-rule="evenodd" clip-rule="evenodd" d="M168.875 60.7194V41.9144C170.326 40.301 171.835 39.5775 173.567 39.5775C175.409 39.5775 175.857 40.301 175.857 43.0853V60.7194H184.571V41.805C184.571 37.4072 184.238 36.0174 182.839 34.5134C181.668 33.2331 179.879 32.5667 177.589 32.5667C174.182 32.5667 171.778 33.6281 168.537 36.6313V35.5176C168.537 33.7899 167.647 32.8999 165.857 32.8999H157.585V36.0745H158.09C159.541 36.0745 160.155 36.7408 160.155 38.1877V60.7194H168.875V60.7194Z" fill="#72767C"/>
<path d="M210.43 54.8794H198.251L209.868 38.6351V32.8999H191.659C189.588 32.8999 188.641 33.847 188.641 35.9079V40.9673H191.882V40.4675C191.882 39.1872 192.553 38.578 193.948 38.578H200.207L188.474 54.989V60.7194H210.43V54.8794V54.8794Z" fill="#72767C"/>
</svg>
